<svg width="81" height="64" viewBox="0 0 81 64" fill="none" xmlns="http://www.w3.org/2000/svg">
<path d="M37.8141 7.48125L21.4172 25.7062C20.7703 26.4234 20.7984 27.5344 21.4875 28.2234C25.7766 32.5125 32.7375 32.5125 37.0266 28.2234L41.4984 23.7516C42.0891 23.1609 42.8344 22.8375 43.5938 22.7812C44.55 22.6969 45.5344 23.0203 46.2656 23.7516L71.1 48.375L81 40.5V0L65.25 9L61.9031 6.76406C59.6813 5.2875 57.0797 4.5 54.4078 4.5H44.5078C44.3531 4.5 44.1844 4.5 44.0297 4.51406C41.6531 4.64063 39.4172 5.70937 37.8141 7.48125ZM16.3969 21.1922L31.4156 4.5H25.8469C22.2609 4.5 18.8297 5.92031 16.2984 8.45156L15.75 9L0 0V40.5L21.9937 58.8234C25.2281 61.5234 29.3062 63 33.5109 63H35.7188L34.7344 62.0156C33.4125 60.6937 33.4125 58.5563 34.7344 57.2484C36.0563 55.9406 38.1937 55.9266 39.5016 57.2484L45.2672 63.0141H46.5328C49.2188 63.0141 51.8484 62.4094 54.2391 61.2844L50.4844 57.5156C49.1625 56.1937 49.1625 54.0563 50.4844 52.7484C51.8063 51.4406 53.9437 51.4266 55.2516 52.7484L59.7516 57.2484L62.2125 54.7875C63.4641 53.5359 63.8297 51.7219 63.2812 50.1328L43.8891 30.8953L41.7938 32.9906C34.8609 39.9234 23.6391 39.9234 16.7063 32.9906C13.4719 29.7563 13.3453 24.5672 16.3969 21.1781V21.1922Z" fill="url(#paint0_linear_39_965)"/>
<defs>
<linearGradient id="paint0_linear_39_965" x1="9.32927" y1="22.8513" x2="66.3613" y2="23.5131" gradientUnits="userSpaceOnUse">
<stop offset="0.259615" stop-color="#28E097"/>
<stop offset="0.807692" stop-color="#19C2A6"/>
</linearGradient>
</defs>
</svg>
