<svg width="54" height="75" viewBox="0 0 54 75" fill="none" xmlns="http://www.w3.org/2000/svg">
<path d="M41.1891 54C42.2156 50.8641 44.2687 48.0234 46.5891 45.5766C51.1875 40.7391 54 34.2 54 27C54 12.0937 41.9062 0 27 0C12.0937 0 0 12.0937 0 27C0 34.2 2.8125 40.7391 7.41094 45.5766C9.73125 48.0234 11.7984 50.8641 12.8109 54H41.175H41.1891ZM40.5 60.75H13.5V63C13.5 69.2156 18.5344 74.25 24.75 74.25H29.25C35.4656 74.25 40.5 69.2156 40.5 63V60.75ZM25.875 15.75C20.2781 15.75 15.75 20.2781 15.75 25.875C15.75 27.7453 14.2453 29.25 12.375 29.25C10.5047 29.25 9 27.7453 9 25.875C9 16.5516 16.5516 9 25.875 9C27.7453 9 29.25 10.5047 29.25 12.375C29.25 14.2453 27.7453 15.75 25.875 15.75Z" fill="url(#paint0_linear_39_932)"/>
<defs>
<linearGradient id="paint0_linear_39_932" x1="6.21951" y1="26.9258" x2="44.2444" y2="27.1755" gradientUnits="userSpaceOnUse">
<stop offset="0.259615" stop-color="#28E097"/>
<stop offset="0.807692" stop-color="#19C2A6"/>
</linearGradient>
</defs>
</svg>
