<svg width="75" height="75" viewBox="0 0 75 75" fill="none" xmlns="http://www.w3.org/2000/svg">
<path d="M40.4297 1.86928C39.8708 0.727735 38.7393 0 37.5124 0C36.2856 0 35.1541 0.727735 34.5952 1.86928L24.5619 22.4456L2.76415 26.0701C1.5509 26.2698 0.542118 27.1688 0.160419 28.396C-0.221281 29.6231 0.0922585 30.9644 0.951082 31.8777L16.5462 48.216L13.1109 71.0327C12.9201 72.3027 13.4245 73.5869 14.4196 74.3432C15.4148 75.0994 16.7235 75.2136 17.8277 74.6286L37.5124 64.1549L57.1836 74.6286C58.2742 75.2136 59.5965 75.0994 60.5916 74.3432C61.5868 73.5869 62.0912 72.3169 61.9003 71.0327L58.4514 48.216L74.0465 31.8777C74.919 30.9644 75.2189 29.6231 74.8372 28.396C74.4555 27.1688 73.4604 26.2698 72.2335 26.0701L50.4493 22.4456L40.4297 1.86928Z" fill="url(#paint0_linear_39_959)"/>
<defs>
<linearGradient id="paint0_linear_39_959" x1="8.63821" y1="27.1978" x2="61.4485" y2="27.6746" gradientUnits="userSpaceOnUse">
<stop offset="0.259615" stop-color="#28E097"/>
<stop offset="0.807692" stop-color="#19C2A6"/>
</linearGradient>
</defs>
</svg>
