<svg width="72" height="72" viewBox="0 0 72 72" fill="none" xmlns="http://www.w3.org/2000/svg">
<path d="M36 0C55.8844 0 72 16.1156 72 36C72 55.8844 55.8844 72 36 72C16.1156 72 0 55.8844 0 36C0 16.1156 16.1156 0 36 0ZM32.625 16.875V36C32.625 37.125 33.1875 38.1797 34.1297 38.8125L47.6297 47.8125C49.1766 48.8531 51.2719 48.4312 52.3125 46.8703C53.3531 45.3094 52.9312 43.2281 51.3703 42.1875L39.375 34.2V16.875C39.375 15.0047 37.8703 13.5 36 13.5C34.1297 13.5 32.625 15.0047 32.625 16.875Z" fill="url(#paint0_linear_61_673)"/>
<defs>
<linearGradient id="paint0_linear_61_673" x1="8.29268" y1="26.1099" x2="58.9906" y2="26.5676" gradientUnits="userSpaceOnUse">
<stop offset="0.259615" stop-color="#28E097"/>
<stop offset="0.807692" stop-color="#19C2A6"/>
</linearGradient>
</defs>
</svg>
